<?xml version="1.0" encoding="UTF-8" standalone="no"?>
<svg
   xmlns:dc="http://purl.org/dc/elements/1.1/"
   xmlns:cc="http://creativecommons.org/ns#"
   xmlns:rdf="http://www.w3.org/1999/02/22-rdf-syntax-ns#"
   xmlns:svg="http://www.w3.org/2000/svg"
   xmlns="http://www.w3.org/2000/svg"
   width="100%"
   height="100%"
   viewBox="0 0 64 64"
   version="1.1"
   xml:space="preserve"
   style="fill-rule:evenodd;clip-rule:evenodd;stroke-linecap:round;stroke-linejoin:round;stroke-miterlimit:2;"
   id="svg25">
  <metadata
   id="metadata31">
    <rdf:RDF>
      <cc:Work
   rdf:about="">
        <dc:format>image/svg+xml</dc:format>

        <dc:type
   rdf:resource="http://purl.org/dc/dcmitype/StillImage" />

      </cc:Work>

    </rdf:RDF>

  </metadata>

  <defs
   id="defs29" />

  
  <path
   d="M7.965,42.376c-0.203,-0.618 -0.133,-1.293 0.192,-1.856c0.325,-0.564 0.874,-0.962 1.511,-1.095c3.192,-0.582 9.014,-1.026 14.118,1.921c5.104,2.947 7.63,8.211 8.722,11.266c0.203,0.618 0.133,1.293 -0.192,1.857c-0.325,0.563 -0.875,0.961 -1.511,1.095c-3.193,0.581 -9.014,1.025 -14.118,-1.922c-5.104,-2.947 -7.631,-8.21 -8.722,-11.266Z"
   style="fill:none;stroke:#222a33;stroke-width:1.5px;"
   id="path3" />

  <path
   d="M32.878,54.747c0.273,0.472 0.733,0.805 1.266,0.917c2.674,0.487 7.55,0.859 11.825,-1.609c4.276,-2.469 6.392,-6.877 7.306,-9.437c0.17,-0.517 0.111,-1.083 -0.161,-1.555c-0.272,-0.471 -0.733,-0.805 -1.266,-0.917c-2.674,-0.487 -7.55,-0.859 -11.825,1.61c-0.989,0.571 -1.92,1.191 -2.633,1.978c-0.967,1.068 -2.39,3.266 -2.39,3.266"
   style="fill:none;stroke:#222a33;stroke-width:1.5px;"
   id="path5" />

  <path
   d="M32.643,54.528c-4.193,-4.043 -8.726,-7.032 -13.895,-8.044"
   style="fill:none;stroke:#222a33;stroke-width:1.5px;"
   id="path7" />

  <path
   d="M33.5,54.5c0,0 3.706,-6.373 11.5,-8.5"
   style="fill:none;stroke:#222a33;stroke-width:1.5px;"
   id="path9" />

  <path
   d="M41,38l0,-27.644c0,-0.625 -0.248,-1.224 -0.69,-1.666c-0.442,-0.442 -1.041,-0.69 -1.666,-0.69c-3.45,0 -9.838,0 -13.288,0c-0.625,0 -1.224,0.248 -1.666,0.69c-0.442,0.442 -0.69,1.041 -0.69,1.666c0,6.66 0,25.144 0,25.144"
   style="fill:none;stroke:#222a33;stroke-width:1.5px;"
   id="path11" />

  <path
   d="M19,17l-4.644,0c-0.625,0 -1.224,0.248 -1.666,0.69c-0.442,0.442 -0.69,1.041 -0.69,1.666l0,16.144"
   style="fill:none;stroke:#222a33;stroke-width:1.5px;"
   id="path13" />

  <path
   d="M30,14.874c0,-0.483 -0.391,-0.874 -0.874,-0.874c-0.668,0 -1.584,0 -2.252,0c-0.483,0 -0.874,0.391 -0.874,0.874c0,0.668 0,1.584 0,2.252c0,0.483 0.391,0.874 0.874,0.874c0.668,0 1.584,0 2.252,0c0.483,0 0.874,-0.391 0.874,-0.874l0,-2.252Z"
   style="fill:none;stroke:#222a33;stroke-width:1.5px;"
   id="path15" />

  <path
   d="M30,22.874c0,-0.483 -0.391,-0.874 -0.874,-0.874c-0.668,0 -1.584,0 -2.252,0c-0.483,0 -0.874,0.391 -0.874,0.874c0,0.668 0,1.584 0,2.252c0,0.483 0.391,0.874 0.874,0.874c0.668,0 1.584,0 2.252,0c0.483,0 0.874,-0.391 0.874,-0.874l0,-2.252Z"
   style="fill:none;stroke:#222a33;stroke-width:1.5px;"
   id="path17" />

  <path
   d="M38,14.874c0,-0.483 -0.391,-0.874 -0.874,-0.874c-0.668,0 -1.584,0 -2.252,0c-0.483,0 -0.874,0.391 -0.874,0.874c0,0.668 0,1.584 0,2.252c0,0.483 0.391,0.874 0.874,0.874c0.668,0 1.584,0 2.252,0c0.483,0 0.874,-0.391 0.874,-0.874l0,-2.252Z"
   style="fill:none;stroke:#222a33;stroke-width:1.5px;"
   id="path19" />

  <path
   d="M37.126,26c0.483,0 0.874,-0.391 0.874,-0.874l0,-2.252c0,-0.483 -0.391,-0.874 -0.874,-0.874c-0.668,0 -1.584,0 -2.252,0c-0.483,0 -0.874,0.391 -0.874,0.874c0,0.668 0,1.584 0,2.252"
   style="fill:none;stroke:#222a33;stroke-width:1.5px;"
   id="path21" />

  <path
   d="M52.124,38l0,-18.644c0,-0.625 -0.248,-1.224 -0.69,-1.666c-0.441,-0.442 -1.041,-0.69 -1.666,-0.69c-2.225,0 -5.674,0 -8.768,0"
   style="fill:none;stroke:#222a33;stroke-width:1.5px;"
   id="path23" />

</svg>
